<?xml version="1.0" encoding="UTF-8"?>
<svg id="_logo_2" data-name="logo 2" xmlns="http://www.w3.org/2000/svg" viewBox="0 0 414.14 248.37">
  <defs>
    <style>
      .cls-1 {
        fill: rgba(20, 16, 17, 0);
      }

      .cls-2 {
        fill: #fff;
      }

      .cls-3 {
        fill: #fd1a16;
      }

      .cls-4 {
        fill: #141011;
      }
    </style>
  </defs>
  <g id="_logo_1-2" data-name="logo 1">
    <rect class="cls-2" width="414.14" height="248.37"/>
    <g>
      <g>
        <rect class="cls-1" x="136.48" width="141.18" height="141.12"/>
        <g>
          <path class="cls-4" d="M207.08,141.12l-31.46-31.41,11.88-11.88,19.59,19.57,58.7-58.72,11.88,11.88-70.58,70.56Z"/>
          <path class="cls-3" d="M195.19,90.13l51.03-50.99,11.86,11.86-50.99,51.03s-11.89-11.89-11.89-11.89Z"/>
          <path class="cls-4" d="M207.08,0l31.44,31.44-11.89,11.86-19.55-19.55-58.7,58.68-11.89-11.86L207.08,0Z"/>
          <path class="cls-3" d="M218.94,50.99l-51.01,51.03-11.86-11.89,51.01-50.99,11.86,11.86Z"/>
        </g>
      </g>
      <path class="cls-4" d="M0,157.59H28.16l22.59,70.92,23.84-70.92h28.16v90.78h-18.38v-68.05l-23.67,68.05h-19.88l-22.45-68.05v68.05H0v-90.78Zm156.92,0h32.52v16.19h-25.18c-6.53,0-11.29,.45-14.28,1.36-3,.91-5.49,2.68-7.48,5.32h0c-1.36,1.8-2.3,3.62-2.8,5.44-.5,1.82-.93,4.9-1.29,9.25h51.04v16.21h-51.04c.74,7.8,3.05,13.22,6.94,16.26,3.91,3.04,10.53,4.56,19.88,4.56h24.21v16.19h-25.18c-6.79,0-12.78-.41-17.95-1.22h0c-8.17-1.36-14.66-4.95-19.46-10.75h0c-6.9-8.35-10.35-19.64-10.35-33.88h0c0-15.8,4.85-28.09,14.56-36.89h0c3.36-3,6.92-5.08,10.68-6.26,3.76-1.18,8.82-1.76,15.18-1.76h0Zm47.36,0h28.16l22.59,70.92,23.84-70.92h28.16v90.78h-18.38v-68.05l-23.67,68.05h-19.88l-22.45-68.05v68.05h-18.38v-90.78Zm135.13,90.78h-22.59l37.58-90.78h22.16l37.58,90.78h-22.59l-8.85-20.96h-34.45l-8.85,20.96Zm39.06-37.15l-12.92-31.72-12.94,31.72h25.86Z"/>
    </g>
  </g>
</svg>