<svg width="111" height="30" fill="none" xmlns="http://www.w3.org/2000/svg"><path d="M13.412 12.034C11.886 5.28 8.703 3.482 7.89 2.211A14.47 14.47 0 0 1 7.002.47c-.043.6-.122.978-.631 1.433-1.022.913-5.36 4.457-5.726 12.131-.34 7.155 5.248 11.567 5.986 12.023.568.28 1.26.006 1.597-.25 2.693-1.854 6.374-6.794 5.188-13.772" fill="#10AA50"/><path d="M7.233 22.246c-.14 1.771-.241 2.8-.599 3.812 0 0 .235 1.686.4 3.472h.582c.14-1.258.351-2.506.636-3.739-.755-.372-.99-1.991-1.019-3.545z" fill="#B8C4C2"/><path d="M8.25 25.792c-.762-.353-.982-2.006-1.016-3.546.188-2.54.243-5.089.165-7.635-.04-1.336.019-12.374-.329-13.99.238.547.512 1.078.82 1.589.812 1.272 3.996 3.07 5.522 9.824 1.19 6.966-2.47 11.893-5.161 13.758z" fill="#12924F"/><path d="M108.714 23.35a1.653 1.653 0 0 1-1.526-1.019 1.662 1.662 0 0 1 1.19-2.264 1.65 1.65 0 0 1 1.701.686c.185.27.286.588.29.915a1.636 1.636 0 0 1-1.655 1.682zm0-3.168a1.504 1.504 0 0 0-1.398.924 1.516 1.516 0 0 0 .318 1.649 1.506 1.506 0 0 0 2.577-1.059 1.48 1.48 0 0 0-.429-1.074 1.49 1.49 0 0 0-1.068-.44zm.399 2.558l-.427-.923h-.344v.923h-.25v-2.1h.617c.46 0 .652.2.652.587 0 .308-.145.5-.414.559l.441.951-.275.003zm-.761-1.14h.362c.294 0 .405-.1.405-.368s-.106-.359-.437-.359h-.33v.727zM84.081 21.838c.448.359 1.343.507 2.132.507 1.023 0 2.026-.19 3.005-1.077.998-.91 1.684-2.3 1.684-4.521 0-2.134-.81-3.866-2.472-4.88-.938-.591-2.153-.824-3.539-.824-.399 0-.81.02-1.043.127a.55.55 0 0 0-.193.3c-.042.38-.042 3.274-.042 4.985 0 1.754 0 4.2.042 4.5.022.254.15.7.426.887v-.004zm-4.254-11.745c.362 0 1.74.063 2.38.063 1.197 0 2.024-.063 4.262-.063 1.875 0 3.454.507 4.582 1.478 1.365 1.184 2.095 2.83 2.095 4.838 0 2.852-1.297 4.5-2.6 5.429-1.298.972-2.985 1.52-5.388 1.52-1.28 0-3.475-.041-5.308-.062h-.038c-.085-.17.157-.828.307-.845.498-.056.63-.076.86-.171.387-.16.478-.357.52-1.054.064-1.31.043-2.873.043-4.648 0-1.267.021-3.74-.02-4.521-.066-.654-.34-.823-.899-.95a11.582 11.582 0 0 0-1.197-.19c-.042-.127.286-.7.392-.824M98.429 11.165c-.085.021-.192.233-.192.338-.022.761-.043 2.746-.043 4.119a.137.137 0 0 0 .107.106c.276.021.959.043 1.534.043.81 0 1.279-.106 1.535-.233.682-.338.997-1.078.997-1.88 0-1.838-1.279-2.535-3.175-2.535a5.718 5.718 0 0 0-.767.042h.004zm4.834 8.45c0-1.859-1.365-2.915-3.859-2.915-.105 0-.898-.021-1.086.021-.064.021-.128.063-.128.106 0 1.331-.022 3.464.043 4.309.043.359.3.866.618 1.014.34.19 1.108.232 1.641.232 1.47 0 2.771-.823 2.771-2.767zm-8.685-9.485c.192 0 .759.063 2.208.063 1.364 0 2.473-.042 3.792-.042 1.641 0 3.899.592 3.899 3.042 0 1.2-.852 2.176-1.96 2.641-.064.021-.064.063 0 .084 1.577.4 2.962 1.373 2.962 3.232 0 1.817-1.129 2.958-2.77 3.676-.998.444-2.238.591-3.492.591-.959 0-3.529-.1-4.958-.084-.15-.063.137-.74.265-.845.327-.01.652-.061.966-.152.511-.126.572-.291.636-1.052.043-.655.043-3 .043-4.669 0-2.282.022-3.823 0-4.584-.021-.591-.235-.782-.64-.887-.319-.064-.852-.127-1.278-.19-.106-.106.222-.74.328-.824M18.132 23.35a.93.93 0 0 1-.065-.427.544.544 0 0 1 .065-.285c.276-.04.55-.096.818-.167.378-.094.52-.3.541-.782.062-1.139.066-3.276.044-4.778v-.044c0-.162 0-.382-.2-.537a4.275 4.275 0 0 0-1.13-.5c-.178-.053-.277-.147-.272-.257.005-.11.118-.24.35-.286.618-.063 2.236-.45 2.871-.744a.423.423 0 0 1 .085.3c0 .066-.01.136-.017.208a8.23 8.23 0 0 0-.038.693.158.158 0 0 0 .268.091c1.21-.951 2.294-1.29 2.85-1.29.915 0 1.627.438 2.179 1.34a.148.148 0 0 0 .123.073.141.141 0 0 0 .116-.062c1.113-.846 2.215-1.351 2.953-1.351 1.744 0 2.787 1.309 2.787 3.5 0 .63-.006 1.429-.012 2.174-.005.654-.01 1.267-.01 1.691 0 .1.137.388.344.445.255.125.623.189 1.09.269h.017c.035.126-.039.615-.11.715-.115 0-.275-.01-.474-.02-.362-.018-.86-.043-1.437-.043-1.16 0-1.765.022-2.343.06-.044-.145-.06-.613-.006-.711.24-.038.476-.09.71-.155.37-.122.476-.29.499-.781.009-.349.076-3.424-.043-4.154-.11-.757-.679-1.643-1.923-1.643-.462 0-1.207.193-1.917.733a.28.28 0 0 0-.07.181v.015c.084.394.084.854.084 1.549 0 .4 0 .817-.005 1.234-.005.848-.01 1.648.005 2.253 0 .412.248.511.449.59l.281.065c.167.041.34.083.599.124a1.15 1.15 0 0 1-.01.532.425.425 0 0 1-.075.181 61.047 61.047 0 0 0-2.26-.041c-.29 0-.762.012-1.179.023-.338.009-.657.018-.839.019a.826.826 0 0 1-.064-.368.639.639 0 0 1 .067-.344l.256-.047c.224-.04.417-.074.599-.12.315-.1.434-.272.457-.675.062-.94.11-3.649-.023-4.327-.226-1.088-.843-1.64-1.837-1.64-.581 0-1.317.281-1.917.732a.586.586 0 0 0-.177.435v1.119c0 1.36-.009 3.053.024 3.785.02.226.1.494.522.592.093.027.252.053.438.084.107.018.223.037.344.059.038.24.019.485-.057.715-.185 0-.414-.012-.675-.023-.4-.018-.898-.04-1.462-.04-.666 0-1.13.022-1.502.04-.25.012-.467.022-.684.023M39.527 15.449a1.815 1.815 0 0 0-1.018.287c-.74.451-1.117 1.352-1.117 2.676 0 2.478 1.238 4.209 3.011 4.209.475.015.939-.15 1.299-.461.545-.445.834-1.355.834-2.629 0-2.441-1.21-4.082-3.01-4.082h.001zm.34 8.091c-3.203 0-4.343-2.355-4.343-4.558 0-1.539.627-2.742 1.865-3.577a5.688 5.688 0 0 1 2.882-.854c2.444 0 4.15 1.761 4.15 4.284 0 1.714-.68 3.068-1.97 3.914-.62.38-1.697.791-2.585.791zM72.13 15.449a1.81 1.81 0 0 0-1.02.287c-.74.451-1.117 1.352-1.117 2.676 0 2.478 1.239 4.209 3.011 4.209.477.016.942-.148 1.303-.461.545-.445.833-1.355.833-2.629 0-2.441-1.209-4.082-3.01-4.082zm.342 8.091c-3.203 0-4.343-2.355-4.343-4.557 0-1.541.627-2.743 1.866-3.578a5.677 5.677 0 0 1 2.882-.854c2.443 0 4.15 1.762 4.15 4.283 0 1.716-.681 3.069-1.972 3.914-.619.381-1.696.792-2.583.792zM61.348 15.365c-.987 0-1.625.781-1.625 1.99s.55 2.646 2.095 2.646c.265 0 .746-.118.984-.381.36-.331.599-1.015.599-1.737 0-1.577-.766-2.518-2.048-2.518h-.005zm-.123 8.344a1.621 1.621 0 0 0-.798.2c-.781.5-1.143 1-1.143 1.581 0 .544.21.977.663 1.361.549.466 1.289.693 2.262.693 1.914 0 2.772-1.032 2.772-2.054 0-.712-.356-1.189-1.09-1.459-.564-.207-1.508-.321-2.663-.321l-.003-.001zm.13 4.901c-1.149 0-1.977-.243-2.684-.789-.688-.532-.998-1.322-.998-1.868.008-.352.142-.69.377-.95.2-.228.664-.655 1.736-1.394a.092.092 0 0 0 .038-.141.088.088 0 0 0-.05-.032c-.883-.339-1.149-.9-1.23-1.2 0-.011 0-.028-.009-.047-.025-.118-.048-.23.112-.345a8.66 8.66 0 0 1 .533-.331c.298-.166.585-.353.857-.559a.14.14 0 0 0-.036-.22c-1.307-.44-1.965-1.413-1.965-2.9a2.89 2.89 0 0 1 1.207-2.373c.526-.417 1.845-.918 2.7-.918h.05c.88.021 1.375.206 2.061.46.39.142.805.207 1.22.194.727 0 1.045-.231 1.318-.5.045.121.068.249.07.378.017.307-.066.612-.237.868-.149.207-.499.357-.82.357-.032 0-.064 0-.099-.005a2.684 2.684 0 0 1-.499-.083l-.082.029c-.026.038-.009.08.012.134.005.01.01.022.012.033.059.267.098.537.119.81 0 1.555-.611 2.232-1.273 2.734-.64.48-1.399.776-2.195.852-.017 0-.1.007-.255.021-.1.009-.23.021-.249.021h-.019c-.143.04-.518.219-.518.552 0 .276.17.619.98.681l.525.037c1.07.075 2.405.168 3.034.381a2.101 2.101 0 0 1 1.404 2.027c0 1.395-.99 2.707-2.647 3.509a5.742 5.742 0 0 1-2.503.563M56.453 22.606c-.469-.063-.81-.127-1.215-.317a.56.56 0 0 1-.15-.3c-.042-.655-.042-2.556-.042-3.8 0-1.015-.17-1.9-.599-2.535-.512-.719-1.236-1.14-2.174-1.14-.831 0-1.94.57-2.855 1.351-.022.021-.163.155-.16-.053.003-.208.035-.63.055-.9a.465.465 0 0 0-.14-.392c-.598.3-2.277.7-2.899.761-.453.088-.568.525-.084.676h.007c.388.107.757.27 1.098.484.191.148.17.36.17.528.021 1.415.021 3.591-.043 4.774-.02.465-.15.634-.49.72l.032-.012c-.26.065-.524.115-.79.148-.106.105-.106.718 0 .845.214 0 1.297-.063 2.195-.063 1.235 0 1.875.063 2.195.063.129-.148.17-.718.086-.845a4.487 4.487 0 0 1-.875-.127c-.34-.084-.426-.254-.447-.633-.042-.994-.042-3.106-.042-4.543 0-.4.106-.59.234-.7.426-.38 1.13-.633 1.747-.633.599 0 .998.19 1.297.443.349.305.568.732.611 1.194.085.8.063 2.41.063 3.8 0 .761-.063.952-.34 1.036-.128.063-.47.127-.874.17-.128.126-.086.717 0 .844.553 0 1.197-.063 2.13-.063 1.173 0 1.92.063 2.217.063.128-.148.171-.7.086-.845" fill="#21313C"/></svg>