<svg width="98" height="31" fill="none" xmlns="http://www.w3.org/2000/svg"><path d="M30.535 8.32a42.022 42.022 0 0 0-.013-.906c-.019-.657-.057-1.32-.174-1.97a6.642 6.642 0 0 0-.618-1.874A6.297 6.297 0 0 0 26.977.815a6.65 6.65 0 0 0-1.874-.617C24.453.08 23.79.042 23.132.025a41.074 41.074 0 0 0-.906-.014c-.358-.002-.716-.002-1.075-.002H9.918c-.36 0-.717 0-1.075.002-.302.002-.604.006-.906.014-.164.004-.33.01-.494.018-.494.023-.99.067-1.478.155a6.857 6.857 0 0 0-1.42.409 6.317 6.317 0 0 0-3.207 2.962A6.633 6.633 0 0 0 .72 5.443c-.117.65-.156 1.314-.174 1.97-.008.304-.012.605-.014.907-.002.358-.002.717-.002 1.075v11.233c0 .359 0 .717.002 1.075.003.302.006.604.014.906.018.657.057 1.32.174 1.97a6.65 6.65 0 0 0 .617 1.875 6.294 6.294 0 0 0 2.755 2.755c.6.305 1.213.498 1.873.617.65.117 1.314.156 1.97.174.303.008.605.011.907.013.357.002.716.002 1.075.002H21.15c.357 0 .716 0 1.075-.002.301-.002.603-.006.905-.013.657-.018 1.321-.057 1.971-.174a6.651 6.651 0 0 0 1.874-.617 6.295 6.295 0 0 0 2.754-2.755c.305-.6.499-1.214.618-1.874.117-.65.155-1.313.173-1.97.008-.302.011-.604.013-.906.003-.358.002-.716.002-1.075V9.395c0-.358 0-.717-.002-1.075h.001z" fill="#F05138"/><path d="M24.307 18.53l-.002-.002c.033-.113.067-.225.097-.341 1.245-4.962-1.795-10.828-6.938-13.916 2.255 3.055 3.25 6.756 2.365 9.992-.079.29-.174.566-.278.836a6.891 6.891 0 0 0-.45-.267s-5.117-3.158-10.662-8.746c-.146-.147 2.957 4.434 6.478 8.154-1.659-.93-6.282-4.295-9.209-6.973.36.6.788 1.177 1.258 1.733 2.444 3.1 5.631 6.924 9.45 9.86-2.683 1.642-6.474 1.77-10.249.002a15.485 15.485 0 0 1-2.624-1.565 15.714 15.714 0 0 0 7.054 6.047c3.572 1.536 7.123 1.431 9.768.026l-.001.003.04-.024c.108-.058.216-.118.32-.18 1.272-.66 3.783-1.33 5.13 1.292.33.642 1.032-2.758-1.546-5.93z" fill="#fff"/><path d="M41.924 19.482c.235 2.08 2.22 3.446 4.978 3.446 2.62 0 4.508-1.364 4.508-3.254 0-1.626-1.144-2.62-3.778-3.28l-2.55-.65c-3.668-.909-5.322-2.564-5.322-5.293 0-3.365 2.937-5.694 7.114-5.694 4.053 0 6.935 2.343 7.032 5.722h-2.689c-.207-2.069-1.889-3.337-4.412-3.337-2.496 0-4.233 1.282-4.233 3.157 0 1.46 1.076 2.33 3.723 3.005l2.124.552c4.108 1.007 5.79 2.606 5.79 5.487 0 3.668-2.91 5.97-7.542 5.97-4.301 0-7.238-2.288-7.459-5.832h2.716zm29.363 5.5h-2.702L65.427 13.98h-.054l-3.144 11.002h-2.702L55.53 10.574h2.619l2.785 11.568h.055l3.144-11.568h2.537l3.17 11.568h.056l2.785-11.568h2.592l-3.985 14.408zM77.017 6.7c0-.868.717-1.571 1.585-1.571.883 0 1.6.703 1.6 1.571 0 .87-.717 1.586-1.6 1.586A1.595 1.595 0 0 1 77.017 6.7zm.276 3.874h2.633v14.408h-2.633V10.574zm19.83 2.124v-2.124h-2.785V7.128h-2.62v3.446h-5.034V9.306c.014-1.282.51-1.82 1.696-1.82.386 0 .772.042 1.089.097v-2.07a9.192 9.192 0 0 0-1.392-.11c-2.813 0-3.999 1.173-3.999 3.861v1.31h-2.013v2.123h2.013v12.285h2.62V12.698h5.02v8.506c0 2.785 1.061 3.86 3.82 3.86.592 0 1.267-.041 1.571-.11v-2.15c-.33.04-.66.063-.993.069-1.227 0-1.778-.58-1.778-1.876v-8.299h2.785z" fill="#000"/></svg>