<svg width="100" height="23" fill="none" xmlns="http://www.w3.org/2000/svg"><path fill-rule="evenodd" clip-rule="evenodd" d="M40.073 18.002l-2.587-5.003-2.645 5.003h-2.845l4.033-6.457-3.63-6.417h2.885l2.355 4.875 2.552-4.875h2.638L39.1 11.505l3.788 6.497h-2.815zm9.222 0V16.6h-.039c-.702 1.1-1.696 1.65-2.983 1.65-.99 0-1.771-.272-2.342-.816-.571-.55-.857-1.285-.857-2.206 0-1.974 1.1-3.097 3.298-3.368l2.943-.408c0-1.384-.636-2.077-1.91-2.077-1.214 0-2.33.378-3.346 1.133V8.482c.38-.232.925-.44 1.634-.626.715-.186 1.365-.278 1.949-.278 2.598 0 3.898 1.325 3.898 3.974v6.45h-2.245zm-2.155-4.66c-.676.085-1.152.254-1.428.506-.269.245-.403.626-.403 1.143 0 .424.154.772.463 1.043.308.265.712.398 1.21.398.676 0 1.234-.235 1.674-.706.44-.47.66-1.057.66-1.759v-.914l-2.176.288zm18.913 4.66v-5.744c0-.947-.148-1.65-.443-2.107-.289-.463-.807-.695-1.555-.695-.598 0-1.1.278-1.507.835-.406.55-.61 1.215-.61 1.997v5.714h-2.274v-5.943c0-1.735-.66-2.603-1.978-2.603-.617 0-1.126.261-1.526.785-.394.523-.59 1.206-.59 2.047v5.714h-2.274V7.826h2.273v1.57h.04c.728-1.212 1.791-1.818 3.19-1.818.669 0 1.26.178 1.771.536.518.351.883.838 1.093 1.461.767-1.332 1.896-1.997 3.386-1.997 2.191 0 3.287 1.378 3.287 4.133v6.29h-2.283zm9.843 0V16.6h-.04c-.702 1.1-1.696 1.65-2.982 1.65-.991 0-1.772-.272-2.343-.816-.57-.55-.856-1.285-.856-2.206 0-1.974 1.099-3.097 3.297-3.368l2.943-.408c0-1.384-.636-2.077-1.91-2.077-1.213 0-2.329.378-3.346 1.133V8.482c.38-.232.925-.44 1.634-.626.715-.186 1.365-.278 1.949-.278 2.599 0 3.898 1.325 3.898 3.974v6.45h-2.244zm-2.156-4.66c-.676.085-1.152.254-1.427.506-.27.245-.404.626-.404 1.143 0 .424.154.772.463 1.043.308.265.712.398 1.21.398.676 0 1.234-.235 1.674-.706.44-.47.66-1.057.66-1.759v-.914l-2.176.288zm12.017-3.28c-.375-.232-.814-.348-1.32-.348-.656 0-1.19.285-1.604.855-.407.57-.61 1.311-.61 2.226v5.207h-2.274V7.826h2.274v1.978h.04c.485-1.438 1.344-2.157 2.578-2.157.4 0 .706.047.916.14v2.275zM88.02 5.55c-.387 0-.715-.125-.984-.377a1.26 1.26 0 0 1-.404-.944c0-.385.135-.706.404-.964.269-.259.597-.388.984-.388.394 0 .725.133.994.398.27.258.404.576.404.954 0 .37-.135.685-.404.944a1.4 1.4 0 0 1-.994.377zM86.86 18.002V7.826h2.273v10.176H86.86zm10.867 0v-5.714c0-1.888-.672-2.832-2.018-2.832-.676 0-1.243.261-1.703.785-.452.517-.679 1.176-.679 1.977v5.784h-2.274V7.826h2.274v1.63h.04c.734-1.252 1.824-1.878 3.267-1.878 2.245 0 3.367 1.39 3.367 4.173v6.25h-2.274zM7.38 0a2.025 2.025 0 0 0-1.715 1.002L.257 10.498a2.085 2.085 0 0 0 0 2.004l5.407 9.496c.348.604 1.024 1 1.715 1.002h10.816a2.025 2.025 0 0 0 1.714-1.002l5.408-9.496a2.085 2.085 0 0 0 0-2.004l-5.408-9.496A2.025 2.025 0 0 0 18.195 0H7.379zm.098 5.555a.232.232 0 0 1 .045 0h1.866c.083.002.163.05.204.122l3.165 5.7c.015.029.026.06.03.092a.247.247 0 0 1 .03-.091l3.157-5.7a.246.246 0 0 1 .211-.123h1.866c.165.001.289.212.211.36L15.173 11.5l3.09 5.578c.084.149-.043.369-.212.367h-1.866a.246.246 0 0 1-.211-.13l-3.157-5.7a.247.247 0 0 1-.03-.092.248.248 0 0 1-.03.092l-3.165 5.7a.246.246 0 0 1-.204.13H7.522c-.169.002-.296-.218-.211-.367L10.4 11.5 7.311 5.915c-.074-.135.016-.331.166-.36z" fill="#3498DB"/></svg>