<svg width="113" height="24" fill="none" xmlns="http://www.w3.org/2000/svg"><path d="M.056 15.058c0-1.25.214-2.416.641-3.499a8.623 8.623 0 0 1 1.795-2.83 8.267 8.267 0 0 1 2.76-1.891c1.071-.458 2.245-.687 3.52-.687.97 0 1.85.14 2.642.418.792.28 1.558.737 2.298 1.373V6.486h4.341V23.63h-4.34v-1.457c-.741.637-1.507 1.094-2.3 1.373-.791.28-1.671.419-2.64.419-1.276 0-2.45-.229-3.52-.687a8.267 8.267 0 0 1-2.761-1.891 8.625 8.625 0 0 1-1.795-2.83c-.427-1.083-.64-2.25-.64-3.5zm9.281 4.906c.342 0 .7-.036 1.077-.108a5.106 5.106 0 0 0 1.136-.369 5.344 5.344 0 0 0 1.12-.695 6.33 6.33 0 0 0 1.042-1.071v-5.325a6.077 6.077 0 0 0-1.042-1.063 5.865 5.865 0 0 0-1.12-.695 4.844 4.844 0 0 0-1.136-.377 5.69 5.69 0 0 0-1.077-.108 4.84 4.84 0 0 0-1.888.368 4.615 4.615 0 0 0-1.53 1.03c-.433.44-.772.96-1.017 1.557a5.09 5.09 0 0 0-.368 1.95c0 .704.123 1.354.368 1.951a4.791 4.791 0 0 0 1.017 1.557c.433.441.943.784 1.53 1.03a4.847 4.847 0 0 0 1.888.368zm19.569-9.58c-2.057.014-3.845 1.418-3.845 3.502v9.745h-4.34v-9.627c.023-4.015 3.572-7.8 8.122-7.853h.122c4.55.054 8.098 3.838 8.123 7.853v9.627h-4.342v-9.745c0-2.084-1.786-3.488-3.844-3.503h.003zm10.237 4.674c0-1.25.213-2.416.64-3.499a8.628 8.628 0 0 1 1.795-2.83 8.267 8.267 0 0 1 2.76-1.891c1.071-.458 2.245-.687 3.521-.687.969 0 1.852.14 2.65.418.797.28 1.56.732 2.29 1.357v-6.58h4.34V23.63H52.8v-1.44c-.73.636-1.493 1.091-2.29 1.365-.798.273-1.681.41-2.65.41-1.276 0-2.45-.229-3.52-.687a8.268 8.268 0 0 1-2.761-1.891 8.623 8.623 0 0 1-1.794-2.83c-.428-1.083-.641-2.25-.641-3.5zm9.28 4.906c.342 0 .7-.036 1.077-.108a5.106 5.106 0 0 0 1.137-.369 5.344 5.344 0 0 0 1.119-.695c.365-.29.712-.647 1.043-1.071v-5.325a5.864 5.864 0 0 0-2.162-1.758 4.847 4.847 0 0 0-1.137-.377 5.694 5.694 0 0 0-1.077-.108c-.672 0-1.302.122-1.888.368a4.614 4.614 0 0 0-1.53 1.03 4.79 4.79 0 0 0-1.017 1.557 5.086 5.086 0 0 0-.367 1.95c0 .704.122 1.354.367 1.951a4.791 4.791 0 0 0 1.017 1.557c.433.441.943.784 1.53 1.03a4.845 4.845 0 0 0 1.888.368zm29.046 0c.65 0 1.262-.12 1.838-.36a4.525 4.525 0 0 0 1.504-1.013 4.766 4.766 0 0 0 1.008-1.548 5.18 5.18 0 0 0 .367-1.985 5.03 5.03 0 0 0-.376-1.967 4.814 4.814 0 0 0-1.025-1.549c-.43-.432-.94-.78-1.504-1.021a4.532 4.532 0 0 0-1.812-.369c-.65 0-1.261.123-1.837.369a4.633 4.633 0 0 0-1.504 1.021 4.882 4.882 0 0 0-1.017 1.55 5.032 5.032 0 0 0-.376 1.967c0 .725.122 1.386.367 1.984a4.763 4.763 0 0 0 1.009 1.548c.426.435.938.78 1.504 1.013.575.24 1.193.36 1.854.36zm0 4.002a9.532 9.532 0 0 1-3.572-.67 9.092 9.092 0 0 1-2.93-1.867 8.813 8.813 0 0 1-1.984-2.83c-.484-1.088-.726-2.268-.726-3.54 0-1.24.242-2.4.726-3.483a9.007 9.007 0 0 1 1.975-2.83 9.245 9.245 0 0 1 2.93-1.9 9.295 9.295 0 0 1 3.581-.695 9.23 9.23 0 0 1 3.572.695 9.268 9.268 0 0 1 2.923 1.9 9.006 9.006 0 0 1 1.974 2.83 8.433 8.433 0 0 1 .726 3.482c0 1.273-.242 2.453-.726 3.542a8.816 8.816 0 0 1-1.983 2.83 9.12 9.12 0 0 1-2.922 1.866 9.464 9.464 0 0 1-3.564.67zM90.78 5.143c-.352 0-.684-.067-.998-.202a2.673 2.673 0 0 1-.824-.549 2.615 2.615 0 0 1-.56-.807 2.365 2.365 0 0 1-.206-.978c0-.344.068-.673.206-.985.132-.304.322-.581.56-.815.237-.232.517-.419.825-.55a2.5 2.5 0 0 1 .997-.201 2.65 2.65 0 0 1 1.838.751c.239.234.429.51.56.815.138.312.207.64.207.986 0 .344-.069.67-.206.977a2.617 2.617 0 0 1-1.393 1.356c-.318.135-.66.203-1.006.202zm-2.17 1.343h4.34V23.63h-4.34V6.486zm6.337 8.572c0-1.25.213-2.416.64-3.499a8.624 8.624 0 0 1 1.795-2.83 8.269 8.269 0 0 1 2.76-1.891c1.071-.458 2.245-.687 3.521-.687.968 0 1.852.14 2.649.418.798.28 1.561.732 2.29 1.357v-6.58h4.341V23.63h-4.341v-1.44c-.729.636-1.492 1.091-2.29 1.365-.798.273-1.681.41-2.649.41-1.276 0-2.45-.229-3.521-.687a8.27 8.27 0 0 1-2.76-1.891 8.623 8.623 0 0 1-1.795-2.83c-.427-1.083-.64-2.25-.64-3.5zm9.28 4.906c.342 0 .701-.036 1.077-.108a5.101 5.101 0 0 0 1.136-.369 5.347 5.347 0 0 0 1.12-.695c.364-.29.712-.647 1.042-1.071v-5.325a6.083 6.083 0 0 0-1.042-1.063 5.868 5.868 0 0 0-1.12-.695 4.842 4.842 0 0 0-1.136-.377 5.693 5.693 0 0 0-1.077-.108c-.672 0-1.302.122-1.889.368a4.615 4.615 0 0 0-1.529 1.03c-.433.44-.772.96-1.017 1.557a5.09 5.09 0 0 0-.368 1.95c0 .704.123 1.354.368 1.951a4.795 4.795 0 0 0 1.017 1.557 4.62 4.62 0 0 0 1.529 1.03 4.849 4.849 0 0 0 1.889.368zm-36.383-9.632c-2.91 0-4.193 1.47-4.193 3.554v9.745H59.31v-9.627c.024-4.015 2.392-7.962 8.534-7.962" fill="#77C159"/></svg>