<svg width="43" height="46" fill="none" xmlns="http://www.w3.org/2000/svg"><path d="M3.399 35.815l18.057 9.958 18.15-10.093L42.99 7.526 21.434.097.014 7.66 3.4 35.815z" fill="#B3B3B3"/><path d="M21.384 43.394l16.316-9.06 3.154-25.18-19.47-6.662v40.902z" fill="#A6120D"/><path d="M21.383 43.394V2.49L2.418 9.273l2.9 25.18 16.065 8.94z" fill="#DD1B16"/><path d="M26.743 24.266l-5.36 2.514h-5.648l-2.656 6.664-4.939.091L21.384 3.977l5.359 20.289zM26.225 23l-4.806-9.545-3.942 9.38h3.906l4.842.165z" fill="#F2F2F2"/><path d="M25.892 22.843h-4.499l-.01 3.931 6.22.006 2.908 6.757 4.726.087L21.383 3.977l.036 9.478 4.473 9.388z" fill="#B3B3B3"/></svg>