<svg width="59" height="36" fill="none" xmlns="http://www.w3.org/2000/svg"><path d="M16.09 12.61c-.019.579.06 1.157.216 1.716.176.482.39.945.625 1.389.078.135.137.29.137.443a.736.736 0 0 1-.372.579l-1.23.81c-.157.096-.333.174-.508.174a.971.971 0 0 1-.587-.27 5.379 5.379 0 0 1-.703-.907c-.195-.328-.39-.694-.606-1.138-1.524 1.774-3.439 2.662-5.744 2.662-1.641 0-2.95-.463-3.908-1.389-.957-.926-1.446-2.16-1.446-3.703 0-1.639.586-2.97 1.778-3.972C4.934 8 6.517 7.5 8.53 7.5c.684 0 1.388.058 2.071.154.723.096 1.466.25 2.247.424V6.67c0-1.465-.312-2.487-.918-3.085-.606-.598-1.68-.887-3.185-.887a8.65 8.65 0 0 0-2.11.25c-.723.174-1.426.386-2.11.656-.215.097-.45.174-.684.25a.896.896 0 0 1-.313.059c-.273 0-.41-.193-.41-.598V2.37c-.02-.232.04-.463.137-.675.156-.174.332-.309.547-.405A10.967 10.967 0 0 1 6.263.422C7.259.172 8.295.056 9.31.056c2.325 0 4.025.52 5.119 1.562 1.094 1.041 1.622 2.623 1.622 4.744v6.248h.039zm-7.932 2.931c.684 0 1.368-.115 2.013-.347a4.475 4.475 0 0 0 1.856-1.234c.312-.347.547-.771.664-1.234.137-.54.195-1.119.195-1.678v-.81a18.439 18.439 0 0 0-1.797-.328 14.687 14.687 0 0 0-1.837-.115c-1.309 0-2.266.25-2.911.77-.645.522-.957 1.254-.957 2.219 0 .906.234 1.581.722 2.044.489.463 1.153.713 2.052.713zm15.69 2.083a1.137 1.137 0 0 1-.743-.193 1.588 1.588 0 0 1-.41-.752L18.103 1.772a2.609 2.609 0 0 1-.176-.771.447.447 0 0 1 .372-.482h2.032c.371 0 .625.057.762.192s.273.386.39.753l3.263 12.766 3.048-12.766c.098-.386.215-.637.372-.753.234-.135.508-.212.781-.192h1.563c.371 0 .626.057.782.192.195.213.332.463.371.753l3.087 12.92 3.38-12.92c.06-.29.196-.54.391-.753.235-.135.489-.212.762-.192H41.1c.235-.039.45.135.489.366v.116c0 .096-.02.212-.04.308a3.47 3.47 0 0 1-.136.482l-4.709 14.907c-.117.386-.254.637-.41.752a1.261 1.261 0 0 1-.743.193h-1.68c-.371 0-.625-.058-.782-.193a1.434 1.434 0 0 1-.37-.77l-3.03-12.44-3.008 12.42c-.04.29-.176.56-.371.771a1.248 1.248 0 0 1-.782.193h-1.68zm25.107.52c-1.016 0-2.032-.115-3.01-.346-.976-.232-1.738-.482-2.246-.772a1.366 1.366 0 0 1-.606-.54 1.279 1.279 0 0 1-.117-.54v-.983c0-.405.156-.598.45-.598.117 0 .234.02.351.058.117.038.293.115.489.193.684.308 1.406.52 2.149.675.762.154 1.543.231 2.325.231 1.23 0 2.188-.212 2.853-.636a2.07 2.07 0 0 0 1.016-1.832 1.847 1.847 0 0 0-.528-1.35c-.352-.367-1.016-.695-1.973-1.003l-2.833-.868c-1.427-.443-2.482-1.1-3.127-1.967-.625-.81-.977-1.774-.977-2.796a4.101 4.101 0 0 1 .528-2.14 4.978 4.978 0 0 1 1.407-1.582A6.05 6.05 0 0 1 47.138.345 8.151 8.151 0 0 1 49.6.017c.43 0 .879.02 1.309.077.45.058.86.135 1.27.212.41.078.762.193 1.113.309.294.096.567.212.821.347.235.116.43.27.586.482a.933.933 0 0 1 .176.637v.906c0 .405-.156.617-.45.617a2.55 2.55 0 0 1-.742-.231 8.936 8.936 0 0 0-3.751-.752c-1.114 0-1.993.173-2.599.54-.605.366-.918.925-.918 1.716-.02.52.195 1.022.586 1.37.39.365 1.114.732 2.15 1.06l2.774.868c1.407.443 2.423 1.06 3.028 1.85.606.772.919 1.736.899 2.7a4.698 4.698 0 0 1-.508 2.238 5.456 5.456 0 0 1-1.426 1.697 6.178 6.178 0 0 1-2.169 1.08 9.695 9.695 0 0 1-2.794.405z" fill="#252F3E"/><path d="M52.557 27.848c-6.352 4.881-15.58 7.472-23.516 7.472-11.12 0-21.14-4.278-28.71-11.389-.598-.562-.057-1.325.657-.883 8.186 4.94 18.284 7.934 28.73 7.934a55.393 55.393 0 0 0 21.913-4.66c1.062-.503 1.969.723.926 1.526z" fill="#F90"/><path d="M55.896 25.037c-.775-1.114-5.13-.537-7.105-.269-.59.083-.683-.495-.148-.928 3.47-2.723 9.172-1.939 9.837-1.031.664.907-.185 7.302-3.433 10.355-.498.474-.978.227-.757-.392.738-2.042 2.38-6.642 1.606-7.735z" fill="#F90"/></svg>