<svg width="90" height="26" fill="none" xmlns="http://www.w3.org/2000/svg"><path fill-rule="evenodd" clip-rule="evenodd" d="M4.252 15.734A2980.437 2980.437 0 0 0 0 23.134c0 .008 1.73.011 3.842.008l3.843-.005 5.284-11.364L18.35.201a.88.88 0 0 0 .08-.2c-.009.003-2.246 1.882-4.971 4.175l-4.955 4.17-4.251 7.388zm11.235 8.877c4.3-.761 7.853-1.392 7.893-1.4l.075-.016-4.06-4.843a689.103 689.103 0 0 1-4.061-4.866c0-.024 4.192-11.602 4.216-11.643.008-.014 2.861 4.926 6.916 11.974l6.956 12.09.053.093-12.904-.002-12.904-.001 7.82-1.386zm49.486-1.17c-1.964-.127-3.106-1.248-3.41-3.348-.08-.558-.08-.573-.088-4.198l-.008-3.51h1.738l.007 3.395c.006 3.059.01 3.417.04 3.633.118.873.353 1.46.755 1.882.32.337.697.535 1.217.64.245.049.944.05 1.167 0 .528-.117.95-.347 1.324-.72.425-.427.74-1.031.891-1.715l.052-.23.005-3.423.006-3.423h1.775v10.762H68.687v-.854c0-.58-.006-.852-.02-.847a.699.699 0 0 0-.1.154 3.576 3.576 0 0 1-1.36 1.364c-.662.366-1.326.496-2.234.438zm17.916-.67c.597.37 1.327.608 2.02.66.33.025 1.338.01 1.612-.023a6.285 6.285 0 0 0 2.55-.887l.18-.111v-.81c.001-.652-.004-.807-.023-.795a5.755 5.755 0 0 0-.168.123 5.333 5.333 0 0 1-2.376.983 7.498 7.498 0 0 1-1.26.049 3.397 3.397 0 0 1-1.93-.818c-.263-.229-.586-.702-.773-1.135a4.228 4.228 0 0 1-.343-1.61v-.171l3.805-.005 3.804-.005.01-.46c.005-.252.004-.64-.004-.86-.048-1.412-.426-2.558-1.114-3.378a4.09 4.09 0 0 0-2.758-1.421 6.22 6.22 0 0 0-1.557.09 4.68 4.68 0 0 0-1.919.92 6.36 6.36 0 0 0-.752.753c-.649.815-1.104 1.956-1.245 3.12-.063.52-.054 1.342.022 1.954.218 1.77.962 3.056 2.22 3.836zM88.22 16.6c0-.868-.365-1.833-.881-2.33a2.418 2.418 0 0 0-1.344-.653 3.96 3.96 0 0 0-1.042.03c-.559.113-1.02.36-1.423.758a3.89 3.89 0 0 0-.942 1.512 4.871 4.871 0 0 0-.182.743l-.012.091h5.826V16.6zm-48.739-1.002L36.61 23.16c-.006.02.196.024.973.024h.98l.725-2.044.752-2.116.028-.071h6.382l.792 2.115.793 2.116h.978c.538 0 .979-.004.979-.008 0-.008-5.498-14.323-5.732-14.922l-.076-.197h-1.84l-2.863 7.54zm6.386 1.741c0-.003-.533-1.453-1.185-3.221-1.22-3.31-1.287-3.508-1.384-4.04-.045-.249-.068-.255-.095-.028-.019.162-.102.526-.166.727-.032.1-.58 1.612-1.22 3.359a525.15 525.15 0 0 0-1.163 3.193c0 .009 1.173.016 2.607.016 1.433 0 2.606-.002 2.606-.006zm4.716 5.295v.551H59.424v-1.474h-3.14c-1.728 0-3.142-.004-3.142-.009 0-.005 1.43-1.992 3.18-4.415L59.5 12.88v-.495h-8.326l.005.732.005.733 2.878.01 2.878.009-3.179 4.382-3.179 4.382zm23.328.539c-.007-.007-.013-2.437-.013-5.4v-5.387h1.738v1.11c0 .611.008 1.111.017 1.111.009 0 .05-.1.094-.222a3.84 3.84 0 0 1 .97-1.5 2.514 2.514 0 0 1 1.373-.684c.149-.024.275-.028.573-.02.374.01.57.037.797.111l.072.024v1.808l-.206-.103a2.188 2.188 0 0 0-1.15-.231 2.176 2.176 0 0 0-1.782 1.031 5.22 5.22 0 0 0-.727 2.096c-.014.128-.023 1.171-.026 3.229l-.005 3.04h-.856c-.47 0-.862-.006-.869-.013z" fill="#0089D6"/></svg>