<svg width="119" height="47" fill="none" xmlns="http://www.w3.org/2000/svg"><path d="M109.937 37.474h1.086v.839h.05c.345-.593 1.133-1.037 1.824-1.037.938 0 1.58.444 1.876 1.135.443-.69 1.134-1.135 2.072-1.135 1.479 0 2.12 1.037 2.12 2.517v3.65h-1.135v-3.454c0-1.232-.493-1.627-1.331-1.627-.888 0-1.53.938-1.53 1.825v3.305h-1.134V40.04c0-1.233-.493-1.628-1.332-1.628-.887 0-1.529.938-1.529 1.825v3.306h-1.135v-6.068h.098zm-4.291 5.92v-5.92h1.085v.987h.049c.247-.691 1.086-1.135 1.727-1.135.346 0 .591.049.838.148l-.443 1.036a1.841 1.841 0 0 0-.592-.099c-.79 0-1.53.642-1.53 1.727v3.256h-1.134zm-2.023-2.96c0-1.38-.937-2.17-1.924-2.17-.987 0-1.923.79-1.923 2.17 0 1.382.936 2.171 1.923 2.171.987-.049 1.924-.839 1.924-2.171zm1.135 0c0 1.826-1.282 3.157-3.059 3.157-1.775 0-3.059-1.38-3.059-3.157 0-1.825 1.284-3.158 3.059-3.158 1.777 0 3.059 1.333 3.059 3.158zM98.64 34.81l-.394.938c-.149-.05-.297-.1-.494-.1-.542 0-.986.346-.986 1.037v.74h1.529v1.036h-1.529v4.933h-1.135V38.46h-1.084v-1.037h1.133v-.739c0-1.233.84-2.023 2.121-2.023.346 0 .593.05.84.148zm-7.25 6.808V38.51h-1.037v-1.036h1.036v-1.825h1.134v1.825h1.48v1.036h-1.48v3.059c0 .69.296.987.79.987.197 0 .345 0 .493-.099l.395.937a2.392 2.392 0 0 1-.888.148c-1.234-.05-1.924-.74-1.924-1.924zm-2.665-.79s-.493-.394-1.431-.394c-1.185 0-1.627.641-1.627 1.184 0 .642.641.938 1.232.938.888 0 1.826-.74 1.826-1.727zm-4.243.79c0-1.332 1.234-2.071 2.615-2.071.79 0 1.382.247 1.628.345v-.148c0-.888-.74-1.431-1.53-1.431-.641 0-1.232.296-1.43.839l-1.036-.444c.197-.543.938-1.432 2.417-1.432 1.48 0 2.664.889 2.664 2.567v3.6h-1.085v-.838h-.05c-.345.492-.937 1.036-1.973 1.036-1.183-.05-2.22-.789-2.22-2.023zm-2.072 1.776V34.71h1.134v8.683H82.41zm-3.453-4.588c.987 0 1.53-.839 1.53-1.53 0-.69-.543-1.528-1.53-1.528h-1.874v3.058h1.874zm-3.01 4.588V34.71h2.96c1.43 0 2.714 1.086 2.714 2.565 0 1.481-1.284 2.567-2.713 2.567h-1.825v3.501h-1.135v.05zm-4.093-2.96c0-1.38-.889-2.17-1.876-2.17-.987 0-1.874.79-1.874 2.17 0 1.332.887 2.171 1.874 2.171.938-.049 1.876-.839 1.876-2.171zm-4.935 0c0-1.825 1.333-3.158 2.812-3.158.938 0 1.678.494 2.023 1.037h.049l-.05-.84v-2.762h1.136v8.683h-1.035v-.838h-.051c-.344.541-1.084 1.035-2.022 1.035-1.529 0-2.862-1.331-2.862-3.157zm-1.972 2.96v-.838h-.05c-.345.541-1.086 1.035-1.874 1.035-1.53 0-2.27-1.035-2.27-2.516v-3.65h1.135v3.453c0 1.234.642 1.678 1.48 1.678.986 0 1.579-.938 1.579-1.826v-3.256h1.135v5.969h-1.135v-.05zm-6.167-2.96c0-1.38-.938-2.17-1.924-2.17-.987 0-1.925.79-1.925 2.17 0 1.382.938 2.171 1.925 2.171.986-.049 1.924-.839 1.924-2.171zm1.135 0c0 1.826-1.283 3.157-3.059 3.157-1.777 0-3.058-1.38-3.058-3.157 0-1.825 1.281-3.158 3.058-3.158 1.776 0 3.059 1.333 3.059 3.158zm-8.09 2.96V34.71h1.133v8.683h-1.133zm-8.83-4.34c0-2.566 1.972-4.54 4.537-4.54 1.333 0 2.417.543 3.207 1.431l-.79.74c-.59-.74-1.43-1.085-2.417-1.085-1.825 0-3.355 1.332-3.355 3.453 0 2.121 1.53 3.454 3.355 3.454 1.086 0 2.022-.494 2.664-1.284l.79.79c-.74.887-1.973 1.529-3.454 1.529-2.565.05-4.538-1.874-4.538-4.489zM28.321 42.33c-.966 0-1.783-.815-1.783-1.934 0-1.127.817-1.953 1.783-1.953.96 0 1.707.826 1.707 1.953.01 1.128-.748 1.934-1.707 1.934zm1.613-4.949v.522h-.048c-.313-.38-.92-.72-1.687-.72-1.602 0-3.073 1.402-3.073 3.213 0 1.792 1.47 3.195 3.073 3.195.767 0 1.374-.34 1.687-.73h.048v.466c0 1.223-.654 1.877-1.707 1.877-.863 0-1.394-.617-1.612-1.139l-1.224.513c.352.853 1.291 1.895 2.845 1.895 1.65 0 3.044-.966 3.044-3.337v-5.755h-1.346zm-8.61 4.95c-.967 0-1.81-.796-1.81-1.944 0-1.157.834-1.944 1.81-1.944.977 0 1.812.787 1.812 1.944 0 1.148-.844 1.943-1.812 1.943zm0-5.14c-1.774 0-3.214 1.346-3.214 3.205 0 1.85 1.44 3.206 3.214 3.206 1.773 0 3.215-1.357 3.215-3.206 0-1.859-1.442-3.205-3.215-3.205zm-7.016 5.14c-.968 0-1.811-.796-1.811-1.944 0-1.157.834-1.944 1.811-1.944.968 0 1.811.787 1.811 1.944 0 1.148-.843 1.943-1.81 1.943zm0-5.14c-1.774 0-3.214 1.346-3.214 3.205 0 1.85 1.44 3.206 3.214 3.206 1.773 0 3.214-1.357 3.214-3.206 0-1.859-1.441-3.205-3.214-3.205zM.91 38.624c0-2.75 2.304-4.98 5.054-4.98 1.518 0 2.598.6 3.413 1.377l-.966.957a3.431 3.431 0 0 0-2.447-.977c-2 0-3.565 1.613-3.565 3.613s1.565 3.612 3.565 3.612c1.3 0 2.038-.52 2.512-.995.39-.389.645-.948.74-1.707H5.965v-1.356h4.58c.047.247.076.53.076.854 0 1.023-.276 2.285-1.176 3.175-.882.911-2.001 1.394-3.48 1.394-2.75 0-5.054-2.227-5.054-4.967zM33.65 43.403h-1.402v-9.416h1.403v9.416zM37.405 38.423c.559 0 1.033.276 1.186.684l-2.865 1.185c-.037-1.233.958-1.869 1.679-1.869zm.104 3.907c-.72 0-1.223-.332-1.555-.966l4.286-1.774-.142-.36c-.266-.721-1.081-2.039-2.74-2.039-1.65 0-3.026 1.3-3.026 3.205 0 1.792 1.357 3.206 3.177 3.206 1.47 0 2.314-.902 2.675-1.423l-1.09-.73c-.372.531-.864.881-1.585.881z" fill="#6C6D6E"/><g clip-path="url(#clip0_856_4195)"><path d="M54.597 21.762l-5.108-8.796 5.108-8.796h10.217l5.108 8.796-5.109 8.796H54.597" fill="#CAC9C2"/><path d="M59.876 16.98c-2.196 0-3.982-1.775-3.982-3.958 0-2.182 1.786-3.958 3.982-3.958 2.195 0 3.982 1.776 3.982 3.958 0 2.183-1.787 3.959-3.982 3.959z" fill="#fff"/><path d="M67.886 1.221c-.313-.539-1.081-.98-1.707-.98H53.59c-.626 0-1.395.441-1.707.98l-3.679 6.334c-.029.41.047.837.228 1.149l2.49 4.232 4.445-7.634h14.049c.332 0 .704.125 1.028.323L67.886 1.22z" fill="#5072AA"/><path d="M48.364 7.278l-.16.277c-.03.41.046.836.227 1.149l2.49 4.232 1.325-2.275-3.882-3.383z" fill="#4D6796"/><path d="M53.914 3.495a.771.771 0 0 1-.542-.224.762.762 0 0 1 .542-1.303c.204 0 .4.08.544.224a.762.762 0 0 1-.544 1.303zm12.589-.764a.704.704 0 0 1-.437.662.715.715 0 0 1-.934-.388.702.702 0 0 1 .16-.768.713.713 0 0 1 1.21.494z" fill="#fff"/><path d="M74.18 12.06l-3.737-6.436c-.323-.197-.695-.322-1.027-.322H64.35l4.38 7.676-6.935 12.181c-.153.263-.414.502-.713.678h5.097c.626 0 1.394-.44 1.707-.98L74.18 14.02c.314-.539.314-1.42 0-1.96z" fill="#CC4232"/><path d="M70.612 5.913l-.167-.289c-.323-.197-.695-.322-1.028-.322h-5.066l1.319 2.311 4.942-1.7z" fill="#B23F33"/><path d="M65.791 23.965a.771.771 0 0 1-.542-.224.762.762 0 0 1 .543-1.303c.203 0 .398.08.543.224a.762.762 0 0 1-.543 1.303zm5.98-10.179a.772.772 0 0 1-.544-.224.762.762 0 0 1 .543-1.303c.204 0 .4.08.543.224a.762.762 0 0 1-.543 1.303z" fill="#fff"/><path d="M55.464 20.655L48.432 8.704c-.181-.313-.257-.74-.228-1.15l-2.616 4.505c-.313.54-.313 1.421 0 1.96l6.295 10.838c.313.539 1.081.98 1.707.98h7.492c.3-.176.56-.415.713-.678l2.564-4.504h-8.895" fill="#ECB02A"/><path d="M60.656 25.837h.435c.3-.176.561-.415.713-.678l2.565-4.504h-2.73l-.983 5.182z" fill="#C79732"/><path d="M53.914 23.965a.771.771 0 0 1-.768-.764c0-.202.081-.396.225-.54a.772.772 0 0 1 1.087 0 .762.762 0 0 1-.544 1.304zm-5.989-10.179a.771.771 0 0 1-.768-.764c0-.202.081-.396.225-.54a.771.771 0 0 1 1.086 0 .762.762 0 0 1-.543 1.304z" fill="#fff"/></g><defs><clipPath id="clip0_856_4195"><path fill="#fff" transform="translate(45.326 .236)" d="M0 0h29.1v25.654H0z"/></clipPath></defs></svg>