<svg width="33" height="41" fill="none" xmlns="http://www.w3.org/2000/svg"><g clip-path="url(#clip0_856_4117)"><path d="M18.208 3.569C20.868.019 24.565 0 24.565 0s.55 3.338-2.092 6.554c-2.821 3.433-6.028 2.871-6.028 2.871s-.602-2.7 1.763-5.857zm-1.425 8.196c1.368 0 3.908-1.905 7.213-1.905 5.69 0 7.928 4.1 7.928 4.1s-4.377 2.267-4.377 7.768c0 6.205 5.453 8.344 5.453 8.344s-3.812 10.867-8.961 10.867c-2.365 0-4.204-1.614-6.696-1.614-2.54 0-5.06 1.674-6.7 1.674C5.94 41 0 30.691 0 22.404c0-8.153 5.028-12.43 9.744-12.43 3.066 0 5.445 1.79 7.04 1.79z" fill="#999"/></g><defs><clipPath id="clip0_856_4117"><path fill="#fff" d="M0 0h33v41H0z"/></clipPath></defs></svg>