<svg width="87" height="33" fill="none" xmlns="http://www.w3.org/2000/svg"><path d="M8.085 25.347s-1.225.742.852.954c2.504.318 3.835.265 6.605-.264.557.339 1.146.623 1.758.848-6.232 2.65-14.116-.16-9.215-1.538zM7.286 21.9s-1.331 1.008.746 1.22c2.717.264 4.847.317 8.523-.424.357.361.795.633 1.278.795-7.51 2.227-15.926.212-10.547-1.59zm14.701 6.044s.906.742-1.012 1.326c-3.569 1.06-14.968 1.378-18.163 0-1.119-.476 1.012-1.166 1.704-1.272.693-.159 1.066-.159 1.066-.159-1.225-.848-8.15 1.75-3.523 2.492 12.73 2.068 23.224-.901 19.922-2.386h.006zM8.671 18.295s-5.805 1.379-2.077 1.856c1.598.212 4.74.159 7.67-.053 2.397-.212 4.793-.636 4.793-.636s-.852.37-1.438.742c-5.912 1.537-17.258.848-14.01-.742 2.77-1.326 5.06-1.167 5.06-1.167h.002zm10.388 5.779c5.965-3.076 3.197-6.044 1.279-5.673-.479.106-.693.212-.693.212s.16-.318.532-.424c3.782-1.325 6.765 3.976-1.225 6.044 0 0 .053-.053.106-.158l.001-.001zM9.258 32.45c5.752.37 14.541-.212 14.754-2.916 0 0-.426 1.06-4.74 1.856-4.902.901-10.967.795-14.542.212 0 0 .745.636 4.527.848z" fill="#4E7896"/><path d="M15.436.8s3.303 3.341-3.144 8.377c-5.166 4.081-1.171 6.415 0 9.065-3.036-2.703-5.22-5.089-3.722-7.315C10.75 7.64 16.768 6.05 15.436.8zM13.73 16.017c1.545 1.75-.425 3.34-.425 3.34s3.94-2.015 2.13-4.506c-1.651-2.386-2.93-3.552 3.995-7.528 0 0-10.92 2.704-5.7 8.695v-.001z" fill="#F58219"/><path d="M54.771 26.984v-12.03c0-3.069-1.726-5.155-6.043-5.155-2.465 0-4.563.614-6.413 1.35l.617 2.208c1.355-.49 3.083-.982 4.933-.982 2.343 0 3.453.982 3.453 2.946v1.596h-1.233c-5.92 0-8.64 2.21-8.64 5.77 0 2.945 1.85 4.664 5.18 4.664 2.097 0 3.7-.982 5.18-2.21l.245 1.842h2.721zm-3.453-3.928c-1.233 1.104-2.59 1.718-3.823 1.718-1.603 0-2.59-.982-2.59-2.7 0-1.719.987-2.947 4.933-2.947h1.48v3.928zm15.047 3.928h-4.317l-5.18-16.817h3.7l3.207 10.311.74 3.07c1.603-4.42 2.836-8.962 3.329-13.38h3.7c-.987 5.523-2.713 11.538-5.18 16.816zm19.979 0v-12.03c0-3.069-1.727-5.155-6.043-5.155-2.466 0-4.564.614-6.414 1.35l.493 2.208c1.48-.49 3.207-.982 5.056-.982 2.344 0 3.454.982 3.454 2.946v1.596h-1.234c-5.92 0-8.64 2.21-8.64 5.77 0 2.945 1.727 4.664 5.057 4.664 2.22 0 3.823-.982 5.303-2.21l.246 1.842h2.722zm-3.454-3.928c-1.233 1.104-2.59 1.718-3.823 1.718-1.603 0-2.59-.982-2.59-2.7 0-1.719.986-2.947 4.933-2.947h1.48v3.928zm-45.261 6.75c-.987 1.473-2.466 2.578-4.317 3.192l-1.603-1.965c1.233-.736 2.467-1.84 2.96-2.823.493-.86.616-2.087.616-4.91V4.15h3.7v18.904c0 3.805-.37 5.278-1.355 6.75l-.001.002z" fill="#4E7896"/></svg>