<svg width="96" height="21" fill="none" xmlns="http://www.w3.org/2000/svg"><path d="M26.637.85h4.428v8.66L39.23.85h5.348l-8.194 8.405 8.568 11.405h-5.32l-6.238-8.433-2.33 2.377v6.056h-4.427V.85z" fill="#231F20"/><path d="M42.597 13.16v-.056c0-4.358 3.566-7.896 8.367-7.896 4.773 0 8.31 3.48 8.31 7.84v.056c0 4.358-3.566 7.896-8.367 7.896-4.773 0-8.31-3.481-8.31-7.84zm12.364 0v-.056c0-2.236-1.64-4.189-4.054-4.189-2.502 0-3.997 1.897-3.997 4.132v.057c0 2.236 1.639 4.189 4.054 4.189 2.502 0 3.997-1.896 3.997-4.132z" fill="#231F20"/><path d="M60.48 16.359V9.17h-1.84V5.49h1.84V1.614h4.37v3.878h3.623V9.17H64.85v6.481c0 .99.431 1.472 1.409 1.472.805 0 1.524-.198 2.156-.538v3.453c-.92.538-1.984.877-3.45.877-2.674 0-4.485-1.047-4.485-4.556zM69.728 0h4.37v20.66h-4.37V0zM75.678 0h4.6v3.82h-4.6V0zm.115 5.49h4.37v15.17h-4.37V5.49zM81.825 5.49h4.37v2.151c1.007-1.273 2.3-2.433 4.514-2.433 3.307 0 5.233 2.15 5.233 5.632v9.82h-4.37v-8.462c0-2.037-.978-3.085-2.645-3.085-1.668 0-2.732 1.048-2.732 3.085v8.462h-4.37V5.49z" fill="#231F20"/><path d="M10.136.84L.033 11.297v9.348L10.12 10.7 20.156.839h-10.02z" fill="url(#paint0_linear_856_4124)"/><path d="M.033 20.646L10.12 10.7l10.035 9.947H.033z" fill="url(#paint1_linear_856_4124)"/><path d="M.033.84h10.103L.033 11.297V.839z" fill="url(#paint2_linear_856_4124)"/><defs><linearGradient id="paint0_linear_856_4124" x1="-2.248" y1="17.961" x2="13.633" y2="1.828" gradientUnits="userSpaceOnUse"><stop offset=".108" stop-color="#C757BC"/><stop offset=".214" stop-color="#D0609A"/><stop offset=".425" stop-color="#E1725C"/><stop offset=".605" stop-color="#EE7E2F"/><stop offset=".743" stop-color="#F58613"/><stop offset=".823" stop-color="#F88909"/></linearGradient><linearGradient id="paint1_linear_856_4124" x1="7.13" y1="23.557" x2="15.496" y2="15.057" gradientUnits="userSpaceOnUse"><stop offset=".097" stop-color="#0095D5"/><stop offset=".301" stop-color="#238AD9"/><stop offset=".621" stop-color="#557BDE"/><stop offset=".864" stop-color="#7472E2"/><stop offset="1" stop-color="#806EE3"/></linearGradient><linearGradient id="paint2_linear_856_4124" x1="-.89" y1="6.977" x2="6.422" y2="-.452" gradientUnits="userSpaceOnUse"><stop offset=".097" stop-color="#0095D5"/><stop offset=".301" stop-color="#238AD9"/><stop offset=".621" stop-color="#557BDE"/><stop offset=".864" stop-color="#7472E2"/><stop offset="1" stop-color="#806EE3"/></linearGradient></defs></svg>