<svg width="53" height="53" fill="none" xmlns="http://www.w3.org/2000/svg"><g clip-path="url(#clip0_856_4013)"><path d="M26.5 53C41.136 53 53 41.136 53 26.5S41.136 0 26.5 0 0 11.864 0 26.5 11.864 53 26.5 53z" fill="#5C2D91"/><path opacity=".1" d="M8.132 7.453a26.5 26.5 0 1 0 37.415 37.415L8.132 7.453z" fill="#fff"/><path d="M6.128 30.848A1.12 1.12 0 0 1 5.3 30.5a1.143 1.143 0 0 1-.34-.828 1.159 1.159 0 0 1 .34-.828 1.109 1.109 0 0 1 .828-.357 1.133 1.133 0 0 1 .828.357 1.152 1.152 0 0 1 .348.828 1.134 1.134 0 0 1-.348.828 1.143 1.143 0 0 1-.828.348zM22.583 30.64h-2.17l-7.76-12.04a4.97 4.97 0 0 1-.48-.944h-.066c.074.687.102 1.379.083 2.07v10.915h-1.764V15.544h2.294l7.553 11.826c.314.49.518.828.612 1.01h.042a15.963 15.963 0 0 1-.108-2.22V15.544h1.764V30.64zM34.525 30.64H26.5V15.545h7.652v1.598h-5.847v5.019h5.45v1.59h-5.45v5.233h6.228l-.008 1.657zM46.375 17.142h-4.39v13.499h-1.763V17.142h-4.34v-1.598h10.493v1.598z" fill="#fff"/><path d="M21.63 40.91a4.081 4.081 0 0 1-1.92.405 3.096 3.096 0 0 1-2.377-.952 3.528 3.528 0 0 1-.895-2.484 3.691 3.691 0 0 1 1.002-2.7 3.413 3.413 0 0 1 2.55-1.027c.567-.02 1.131.08 1.657.29v.828a3.313 3.313 0 0 0-1.656-.414 2.533 2.533 0 0 0-1.946.828 3.015 3.015 0 0 0-.746 2.137c-.038.74.211 1.467.696 2.028a2.368 2.368 0 0 0 1.83.754 3.428 3.428 0 0 0 1.814-.464l-.008.77zM25.018 41.315a2.303 2.303 0 0 1-1.764-.737 2.575 2.575 0 0 1-.655-1.847 2.684 2.684 0 0 1 .688-1.954 2.486 2.486 0 0 1 1.847-.704 2.229 2.229 0 0 1 1.73.687c.44.53.663 1.209.621 1.897a2.667 2.667 0 0 1-.67 1.905 2.351 2.351 0 0 1-1.797.753zm.058-4.53a1.514 1.514 0 0 0-1.21.522c-.318.41-.477.922-.447 1.44-.029.504.13 1 .448 1.392a1.531 1.531 0 0 0 1.209.514 1.458 1.458 0 0 0 1.184-.497 2.17 2.17 0 0 0 .414-1.425 2.203 2.203 0 0 0-.414-1.432 1.45 1.45 0 0 0-1.184-.514zM31.353 37.034a.977.977 0 0 0-.605-.158 1.02 1.02 0 0 0-.828.48 2.22 2.22 0 0 0-.34 1.31v2.533h-.827v-4.968h.828v1.035a1.74 1.74 0 0 1 .521-.828c.216-.188.493-.29.779-.29a1.3 1.3 0 0 1 .472.066v.82zM36.206 38.922h-3.503c-.024.463.127.918.422 1.275a1.541 1.541 0 0 0 1.176.447 2.484 2.484 0 0 0 1.54-.554v.745a2.882 2.882 0 0 1-1.73.472 2.103 2.103 0 0 1-1.657-.68 2.774 2.774 0 0 1-.604-1.904c-.03-.69.204-1.365.654-1.888a2.11 2.11 0 0 1 1.656-.729 1.872 1.872 0 0 1 1.507.63c.382.502.57 1.125.53 1.755l.009.43zm-.829-.671c.017-.384-.1-.761-.33-1.068a1.135 1.135 0 0 0-.912-.381 1.283 1.283 0 0 0-.952.406 1.83 1.83 0 0 0-.489 1.051l2.683-.008z" fill="#F2F2F2"/></g><defs><clipPath id="clip0_856_4013"><path fill="#fff" d="M0 0h53v53H0z"/></clipPath></defs></svg>