<svg width="95" height="27" fill="none" xmlns="http://www.w3.org/2000/svg"><path d="M87.376 9.652c-.23 0-.452.047-.65.158l-6.24 3.582c-.403.231-.648.668-.648 1.133v7.15c0 .465.245.901.649 1.133l1.63.934c.791.388 1.083.381 1.443.381 1.173 0 1.842-.707 1.842-1.936v-7.054c0-.1-.087-.171-.186-.171h-.781c-.1 0-.186.073-.186.17v7.06c0 .544-.57 1.092-1.497.631l-1.694-.987c-.06-.033-.106-.092-.106-.158v-7.151a.21.21 0 0 1 .106-.171l6.227-3.57a.185.185 0 0 1 .185 0l6.227 3.57a.21.21 0 0 1 .106.17v7.152a.198.198 0 0 1-.093.17l-6.24 3.57a.193.193 0 0 1-.185 0l-1.603-.948a.168.168 0 0 0-.159 0c-.442.25-.525.278-.94.421-.102.036-.258.09.053.264l2.093 1.226c.2.115.421.171.65.171.23 0 .449-.055.648-.171l6.24-3.569c.404-.234.65-.668.65-1.133v-7.15c0-.465-.246-.9-.65-1.133l-6.24-3.582a1.307 1.307 0 0 0-.649-.158l-.002-.004zm1.669 5.11c-1.777 0-2.835.752-2.835 2.002 0 1.354 1.05 1.728 2.756 1.896 2.04.198 2.199.496 2.199.895 0 .693-.556.988-1.868.988-1.65 0-2.012-.41-2.133-1.226-.014-.088-.082-.158-.172-.158h-.81a.19.19 0 0 0-.186.184c0 1.044.571 2.278 3.299 2.278 1.974 0 3.113-.768 3.113-2.12 0-1.336-.92-1.697-2.835-1.95-1.933-.255-2.12-.378-2.12-.829 0-.372.157-.87 1.59-.87 1.28 0 1.754.275 1.948 1.133.017.08.088.147.172.147h.81c.05 0 .098-.03.133-.066.034-.038.058-.08.053-.132-.126-1.478-1.117-2.173-3.114-2.173v.001z" fill="#83CD29"/><path d="M50.693.278a.401.401 0 0 0-.397.395v10.075a.266.266 0 0 1-.133.237.277.277 0 0 1-.279 0l-1.656-.949a.798.798 0 0 0-.794 0l-6.61 3.793a.808.808 0 0 0-.399.698v7.585a.785.785 0 0 0 .398.685l6.61 3.793a.795.795 0 0 0 .795 0l6.611-3.793a.792.792 0 0 0 .398-.685V3.202a.802.802 0 0 0-.411-.698L50.89.317a.392.392 0 0 0-.198-.04v.001zM8.166 9.747a.751.751 0 0 0-.358.092L1.2 13.63a.79.79 0 0 0-.397.685l.013 10.18c0 .142.074.273.199.342a.387.387 0 0 0 .397 0L5.333 22.6a.803.803 0 0 0 .41-.684V17.16c0-.284.15-.544.398-.685l1.67-.961a.784.784 0 0 1 .396-.106c.14 0 .277.036.398.106l1.668.96c.248.141.398.402.398.685v4.754c0 .283.165.54.41.685l3.922 2.238a.387.387 0 0 0 .397 0c.122-.07.199-.2.199-.342l.013-10.18a.78.78 0 0 0-.397-.684l-6.61-3.792a.746.746 0 0 0-.358-.093h-.08zm59.403.092a.793.793 0 0 0-.397.105l-6.611 3.793a.788.788 0 0 0-.398.684v7.586c0 .285.162.543.41.684l6.558 3.716a.8.8 0 0 0 .782.013l3.974-2.2c.126-.07.212-.2.212-.342a.39.39 0 0 0-.199-.342l-6.65-3.793a.425.425 0 0 1-.212-.356v-2.372c0-.141.088-.271.212-.342l2.066-1.185a.4.4 0 0 1 .398 0l2.067 1.185a.394.394 0 0 1 .2.343v1.87a.392.392 0 0 0 .198.342.397.397 0 0 0 .398 0l3.96-2.291a.791.791 0 0 0 .398-.685v-1.83a.787.787 0 0 0-.397-.685l-6.571-3.792a.792.792 0 0 0-.398-.106zm-19.766 5.663c.037 0 .074.008.106.026l2.266 1.304c.061.035.106.1.106.17v2.608c0 .071-.044.136-.106.171l-2.266 1.304a.203.203 0 0 1-.198 0l-2.266-1.304a.204.204 0 0 1-.106-.17v-2.609c0-.07.045-.135.106-.17l2.266-1.304a.175.175 0 0 1 .092-.027z" fill="#404137"/><path d="M28.026 9.8a.797.797 0 0 0-.398.105l-6.61 3.78a.808.808 0 0 0-.398.697v7.585a.783.783 0 0 0 .397.685l6.611 3.793a.795.795 0 0 0 .795 0l6.61-3.793a.791.791 0 0 0 .398-.685v-7.585a.807.807 0 0 0-.398-.698l-6.61-3.78a.79.79 0 0 0-.398-.105zm39.531 6.768c-.026 0-.055 0-.08.013l-1.271.738a.155.155 0 0 0-.08.131V18.9c0 .054.032.104.08.132l1.272.724a.138.138 0 0 0 .145 0l1.272-.724a.155.155 0 0 0 .08-.132V17.45a.155.155 0 0 0-.08-.132l-1.272-.737c-.023-.014-.04-.013-.066-.013z" fill="#83CD29"/></svg>