<svg width="53" height="48" fill="none" xmlns="http://www.w3.org/2000/svg"><path d="M.822 24.035c0-3.439 4.246-6.698 10.756-8.72-1.502-6.73-.834-12.084 2.108-13.798.678-.402 1.47-.592 2.337-.592v2.36c-.48 0-.866.095-1.19.274-1.419.826-2.034 3.969-1.554 8.01.115.996.302 2.043.532 3.112 2.045-.508 4.277-.9 6.625-1.153a51.447 51.447 0 0 1 4.34-5.291c-3.401-3.207-6.594-4.963-8.764-4.963V.914c2.87 0 6.625 2.074 10.423 5.672 3.798-3.577 7.554-5.63 10.423-5.63v2.36c-2.16 0-5.363 1.746-8.764 4.931a49.824 49.824 0 0 1 4.309 5.28c2.358.255 4.59.646 6.635 1.165.24-1.059.418-2.085.543-3.07.49-4.041-.115-7.184-1.523-8.02-.313-.19-.72-.275-1.2-.275V.967c.876 0 1.67.19 2.358.593 2.931 1.714 3.589 7.058 2.076 13.766 6.49 2.032 10.715 5.28 10.715 8.71 0 3.438-4.247 6.697-10.757 8.719 1.502 6.73.835 12.084-2.107 13.798-.678.402-1.471.593-2.348.593-2.869 0-6.625-2.074-10.423-5.672-3.797 3.577-7.553 5.63-10.422 5.63-.877 0-1.67-.191-2.358-.593-2.932-1.714-3.59-7.058-2.076-13.767C5.047 30.723.822 27.464.822 24.035zm13.584-7.058a48.133 48.133 0 0 0 1.408 4.18c.428-.847.877-1.693 1.367-2.54a57.42 57.42 0 0 1 1.502-2.476c-1.481.222-2.91.498-4.277.836zm4.778 11.27a56.488 56.488 0 0 0 2.514 4.042c1.555.137 3.13.212 4.716.212 1.576 0 3.151-.075 4.695-.201a58.478 58.478 0 0 0 2.525-4.021 55.405 55.405 0 0 0 2.17-4.212 55.454 55.454 0 0 0-2.16-4.222 56.485 56.485 0 0 0-2.514-4.042 53.517 53.517 0 0 0-4.716-.212c-1.575 0-3.15.074-4.695.201a58.457 58.457 0 0 0-2.525 4.021 55.422 55.422 0 0 0-2.17 4.212 59.547 59.547 0 0 0 2.16 4.222zm-3.37-1.376a45.805 45.805 0 0 0-1.44 4.212c1.367.338 2.807.624 4.299.846a58.537 58.537 0 0 1-1.503-2.508 60.349 60.349 0 0 1-1.356-2.55zm10.58 11.29a43.439 43.439 0 0 0 2.9-3.385 63.72 63.72 0 0 1-2.87.074c-.98 0-1.95-.021-2.9-.074a41.143 41.143 0 0 0 2.87 3.386zm7.762-6.232a46.493 46.493 0 0 0 4.277-.836 48.167 48.167 0 0 0-1.408-4.18 50.307 50.307 0 0 1-1.367 2.54c-.49.847-.991 1.672-1.502 2.476zm-7.71-22.02a43.471 43.471 0 0 0-2.901 3.386 63.724 63.724 0 0 1 2.87-.074c.98 0 1.95.02 2.9.074a41.172 41.172 0 0 0-2.87-3.386zm7.72 6.232a58.64 58.64 0 0 1 2.859 5.048 45.794 45.794 0 0 0 1.44-4.212 50.01 50.01 0 0 0-4.299-.836zm9.442 13.249c3.693-1.598 6.083-3.694 6.083-5.355 0-1.661-2.39-3.767-6.083-5.354a31.851 31.851 0 0 0-2.89-1.069 51.288 51.288 0 0 1-2.347 6.444 50.568 50.568 0 0 1 2.316 6.413 31.405 31.405 0 0 0 2.921-1.08zm-5.613 15.12c1.419-.825 2.034-3.967 1.555-8.01a32.951 32.951 0 0 0-.533-3.11c-2.045.507-4.277.899-6.625 1.153a51.47 51.47 0 0 1-4.34 5.29c3.401 3.207 6.594 4.964 8.764 4.964.47-.011.866-.106 1.179-.286zm-24.747-8.062c-.49 4.042.114 7.185 1.523 8.02.313.191.72.276 1.2.276 2.16 0 5.362-1.746 8.763-4.931a49.834 49.834 0 0 1-4.309-5.28c-2.357-.255-4.59-.646-6.635-1.165a30.034 30.034 0 0 0-.542 3.08zM9.23 29.39c.897.391 1.878.74 2.89 1.068a51.289 51.289 0 0 1 2.347-6.444 50.569 50.569 0 0 1-2.316-6.412A32.791 32.791 0 0 0 9.22 18.68c-3.693 1.598-6.082 3.693-6.082 5.354.01 1.662 2.4 3.767 6.093 5.355z" fill="#61DAFB"/><path d="M26.6 28.748c-2.634 0-4.768-2.165-4.768-4.836 0-2.67 2.134-4.835 4.767-4.835 2.634 0 4.768 2.165 4.768 4.835 0 2.671-2.134 4.836-4.768 4.836z" fill="#61DAFB"/></svg>