<svg width="49" height="53" fill="none" xmlns="http://www.w3.org/2000/svg"><path d="M47.944 21.479c0-3.128-3.919-6.092-9.927-7.93 1.387-6.121.77-10.99-1.944-12.55C35.447.634 34.715.46 33.916.46v2.146c.443 0 .8.087 1.098.25 1.309.751 1.877 3.61 1.434 7.286a29.518 29.518 0 0 1-.49 2.83 46.69 46.69 0 0 0-6.114-1.05 46.946 46.946 0 0 0-4.006-4.812c3.14-2.916 6.085-4.513 8.088-4.513V.45c-2.648 0-6.114 1.886-9.618 5.158C20.803 2.356 17.338.49 14.69.49v2.146c1.993 0 4.948 1.588 8.087 4.485a45.46 45.46 0 0 0-3.976 4.802 44.99 44.99 0 0 0-6.123 1.059 29.022 29.022 0 0 1-.501-2.791c-.452-3.676.106-6.535 1.406-7.295.288-.173.664-.25 1.107-.25V.499c-.809 0-1.54.173-2.176.539-2.706 1.559-3.312 6.419-1.916 12.52C4.61 15.406.71 18.361.71 21.478c0 3.129 3.919 6.093 9.926 7.93-1.386 6.122-.77 10.991 1.945 12.55.626.366 1.358.54 2.167.54 2.647 0 6.113-1.887 9.618-5.16 3.504 3.254 6.97 5.12 9.617 5.12.81 0 1.54-.172 2.176-.538 2.706-1.56 3.312-6.42 1.916-12.52 5.97-1.839 9.869-4.803 9.869-7.921zm-12.536-6.42a43.328 43.328 0 0 1-1.3 3.802c-.394-.77-.808-1.54-1.26-2.31-.443-.77-.915-1.52-1.387-2.252 1.367.203 2.686.453 3.947.76zm-4.41 10.25a51.243 51.243 0 0 1-2.32 3.676 50.118 50.118 0 0 1-8.683.01 53.016 53.016 0 0 1-2.33-3.657 50.135 50.135 0 0 1-2.003-3.83 50.09 50.09 0 0 1 1.993-3.84 51.24 51.24 0 0 1 2.32-3.676 50.083 50.083 0 0 1 8.684-.01 52.98 52.98 0 0 1 2.33 3.657 50.102 50.102 0 0 1 2.003 3.83 53.864 53.864 0 0 1-1.993 3.84zm3.11-1.25a41.28 41.28 0 0 1 1.33 3.83c-1.262.307-2.59.567-3.967.77.471-.742.943-1.502 1.386-2.282.443-.77.857-1.55 1.252-2.319zm-9.762 10.268a39.743 39.743 0 0 1-2.676-3.08c.866.039 1.752.067 2.647.067.905 0 1.8-.019 2.677-.067a37.592 37.592 0 0 1-2.648 3.08zm-7.163-5.669a43.436 43.436 0 0 1-3.947-.76c.356-1.242.8-2.522 1.3-3.802.395.77.809 1.54 1.26 2.31.453.77.916 1.52 1.387 2.252zm7.115-20.027c.896.924 1.79 1.954 2.677 3.08a59.614 59.614 0 0 0-2.648-.068c-.905 0-1.8.02-2.676.068a37.57 37.57 0 0 1 2.647-3.08zm-7.124 5.668a53.2 53.2 0 0 0-2.638 4.59 41.202 41.202 0 0 1-1.329-3.83 46.786 46.786 0 0 1 3.966-.76zM8.46 26.35c-3.409-1.454-5.613-3.36-5.613-4.87 0-1.511 2.204-3.426 5.613-4.87a29.688 29.688 0 0 1 2.666-.972 46.194 46.194 0 0 0 2.167 5.861 45.559 45.559 0 0 0-2.138 5.832 29.318 29.318 0 0 1-2.695-.981zM13.64 40.1c-1.31-.75-1.878-3.609-1.435-7.285.106-.905.279-1.858.49-2.83a46.66 46.66 0 0 0 6.114 1.05 46.955 46.955 0 0 0 4.006 4.811c-3.14 2.916-6.085 4.514-8.088 4.514-.433-.01-.799-.096-1.088-.26zm22.836-7.333c.453 3.676-.106 6.534-1.406 7.294-.288.174-.664.25-1.107.25-1.993 0-4.948-1.587-8.087-4.484a45.44 45.44 0 0 0 3.976-4.802 44.972 44.972 0 0 0 6.123-1.059c.222.972.395 1.906.501 2.8zm3.707-6.42c-.828.357-1.733.674-2.667.973a46.235 46.235 0 0 0-2.166-5.861 45.527 45.527 0 0 0 2.137-5.833 30.56 30.56 0 0 1 2.705.982c3.409 1.453 5.613 3.359 5.613 4.87-.01 1.51-2.214 3.426-5.622 4.87z" fill="#61DAFB"/><path d="M24.317 25.877a4.399 4.399 0 1 0-4.4-4.398c0 2.43 1.97 4.398 4.4 4.398zM2.855 50.07H1.403v2.5h-.82v-6.18H2.63c.697 0 1.232.158 1.605.475.377.317.565.778.565 1.384 0 .385-.105.72-.314 1.006a1.85 1.85 0 0 1-.866.641l1.452 2.623v.052h-.875l-1.342-2.5zm-1.452-.666h1.253c.404 0 .726-.105.964-.315.24-.209.36-.49.36-.84 0-.382-.114-.675-.343-.879-.227-.204-.555-.307-.986-.31H1.403v2.344zm6.328 3.252c-.623 0-1.13-.204-1.52-.612-.392-.41-.587-.958-.587-1.643v-.144c0-.456.086-.862.26-1.218.175-.36.418-.64.73-.84a1.838 1.838 0 0 1 1.019-.307c.597 0 1.062.197 1.393.59.331.394.497.957.497 1.69v.327H6.41c.011.453.143.82.395 1.1.255.277.577.415.968.415.278 0 .512-.056.705-.17a1.77 1.77 0 0 0 .505-.45l.48.374c-.385.592-.962.888-1.732.888zm-.098-4.118c-.317 0-.583.116-.799.348-.215.229-.348.552-.399.968h2.302v-.06c-.023-.399-.13-.707-.323-.925-.192-.221-.453-.331-.781-.331zm5.64 4.033c-.046-.091-.083-.252-.11-.484-.366.379-.802.569-1.309.569-.453 0-.825-.128-1.117-.383a1.252 1.252 0 0 1-.433-.976c0-.478.181-.849.544-1.112.365-.266.877-.4 1.537-.4h.764v-.36c0-.275-.082-.493-.246-.654-.164-.164-.406-.246-.726-.246-.28 0-.515.07-.705.212-.19.142-.285.313-.285.514h-.79c0-.23.081-.45.242-.663a1.68 1.68 0 0 1 .663-.509c.28-.124.588-.187.922-.187.53 0 .944.133 1.244.4.3.263.456.626.467 1.09v2.114c0 .422.054.758.162 1.006v.069h-.824zm-1.304-.599c.246 0 .48-.064.7-.191.221-.127.381-.293.48-.497v-.942h-.615c-.963 0-1.444.281-1.444.845 0 .246.082.438.246.577.164.139.375.208.633.208zm5.04.042c.281 0 .526-.085.735-.254a.896.896 0 0 0 .349-.637h.743a1.424 1.424 0 0 1-.272.751c-.167.238-.39.428-.67.57a1.916 1.916 0 0 1-.884.212c-.626 0-1.124-.209-1.495-.625-.368-.419-.552-.99-.552-1.715v-.131c0-.447.082-.845.246-1.193.164-.348.4-.619.705-.81.309-.194.673-.29 1.092-.29.515 0 .942.155 1.282.463.343.309.525.709.548 1.201h-.743a1.07 1.07 0 0 0-.34-.73c-.2-.192-.45-.288-.747-.288-.4 0-.71.144-.93.433-.218.285-.328.7-.328 1.244v.148c0 .53.11.937.327 1.223.219.285.53.428.935.428zm3.776-5.149v1.112h.858v.607h-.858v2.849c0 .184.038.322.115.416.076.09.207.136.39.136a1.9 1.9 0 0 0 .374-.051v.637a2.278 2.278 0 0 1-.603.085c-.35 0-.616-.107-.794-.319-.178-.212-.267-.514-.267-.904v-2.849h-.837v-.607H20v-1.112h.785zm8.812 5.706h-.82l-3.112-4.764v4.764h-.82V46.39h.82l3.121 4.784v-4.785h.811v6.181zm4.162 0c-.045-.091-.082-.252-.11-.484-.366.379-.802.569-1.308.569-.453 0-.826-.128-1.117-.383a1.252 1.252 0 0 1-.433-.976c0-.478.18-.849.543-1.112.365-.266.878-.4 1.538-.4h.764v-.36c0-.275-.082-.493-.246-.654-.164-.164-.407-.246-.727-.246-.28 0-.515.07-.704.212-.19.142-.285.313-.285.514h-.79c0-.23.08-.45.242-.663a1.68 1.68 0 0 1 .663-.509c.28-.124.587-.187.921-.187.53 0 .944.133 1.245.4.3.263.455.626.467 1.09v2.114c0 .422.053.758.161 1.006v.069h-.824zm-1.303-.599c.246 0 .48-.064.7-.191.22-.127.38-.293.48-.497v-.942h-.616c-.962 0-1.444.281-1.444.845 0 .246.082.438.247.577.164.139.375.208.633.208zm4.263-5.107v1.112h.858v.607h-.858v2.849c0 .184.038.322.115.416.076.09.207.136.39.136.091 0 .216-.017.374-.051v.637a2.28 2.28 0 0 1-.603.085c-.35 0-.615-.107-.794-.319-.178-.212-.267-.514-.267-.904v-2.849h-.837v-.607h.837v-1.112h.785zm2.633 5.706h-.785v-4.594h.785v4.594zm-.85-5.812c0-.127.04-.235.116-.323.079-.088.195-.131.348-.131.153 0 .269.043.348.131.08.088.119.196.119.323a.45.45 0 0 1-.119.318c-.08.085-.195.128-.348.128-.153 0-.27-.043-.348-.128a.459.459 0 0 1-.115-.318zm3.628 4.746l1.138-3.528h.803l-1.648 4.594h-.6l-1.664-4.594h.803l1.168 3.528zm4.544 1.15c-.623 0-1.13-.203-1.52-.61-.391-.411-.587-.959-.587-1.644v-.144c0-.456.087-.862.26-1.218.175-.36.418-.64.73-.84a1.838 1.838 0 0 1 1.019-.307c.597 0 1.062.197 1.393.59.331.394.497.957.497 1.69v.327h-3.113c.011.453.143.82.395 1.1.255.277.578.415.968.415.278 0 .513-.056.705-.17.193-.113.361-.263.506-.45l.48.374c-.386.592-.963.888-1.733.888zm-.098-4.117c-.317 0-.583.116-.798.348-.216.229-.349.552-.4.968h2.302v-.06c-.022-.399-.13-.707-.322-.925-.193-.221-.453-.331-.782-.331z" fill="#61DAFB"/></svg>