<svg width="78" height="42" fill="none" xmlns="http://www.w3.org/2000/svg"><path fill-rule="evenodd" clip-rule="evenodd" d="M71.126 21.32c-.07-.147-.098-.222-.135-.293-.975-1.902-1.947-3.8-2.93-5.698-.098-.192-.086-.304.048-.467 1.55-1.856 3.09-3.72 4.635-5.585a.511.511 0 0 0 .122-.25l-1.354.363c-1.874.509-3.744 1.018-5.614 1.53-.175.046-.252-.004-.342-.154-1.065-1.823-2.13-3.641-3.2-5.46a.739.739 0 0 0-.23-.267c-.086.484-.176.972-.257 1.456l-.89 5.143c-.033.184-.078.371-.094.555-.016.175-.101.242-.26.292-2.207.709-4.41 1.426-6.614 2.144a.768.768 0 0 0-.297.167c1.805.734 3.606 1.472 5.44 2.219-.066.054-.11.095-.16.129-1.125.746-2.255 1.493-3.381 2.248-.135.092-.24.104-.395.033-1.345-.621-2.699-1.23-4.049-1.852-.605-.275-1.15-.646-1.573-1.176-.96-1.205-.768-2.573.508-3.408.419-.275.895-.48 1.366-.638 2.163-.721 4.33-1.418 6.496-2.119.183-.058.265-.141.301-.342.289-1.714.59-3.428.89-5.143.163-.917.249-1.856.684-2.694.166-.321.365-.638.605-.91.862-.98 2.061-1.017 2.972-.083.309.317.573.688.8 1.068 1.005 1.677 1.989 3.366 2.972 5.055.114.2.22.242.436.18 2.418-.664 4.837-1.318 7.256-1.977.5-.134 1.004-.184 1.516-.088 1.114.213 1.602 1.084 1.228 2.19-.17.504-.468.93-.8 1.33-1.688 2.04-3.375 4.08-5.07 6.111-.138.167-.142.288-.045.471 1.012 1.957 2.012 3.913 3.017 5.873.24.467.422.955.43 1.493a2.39 2.39 0 0 1-2.044 2.403c-.663.1-1.281-.046-1.903-.242-1.516-.48-3.033-.955-4.553-1.422-.142-.042-.195-.1-.22-.255-.174-1.097-.365-2.19-.548-3.287-.005-.029.004-.062.008-.129 1.728.492 3.443.976 5.228 1.485z" fill="#E25C26"/><path fill-rule="evenodd" clip-rule="evenodd" d="M68.17 37.294a667.652 667.652 0 0 0-4.102-.004c-.178 0-.28-.054-.382-.212a2950.43 2950.43 0 0 0-4.87-7.58c-.053-.079-.106-.158-.2-.291l-1.032 8.066h-3.581c.04-.358.077-.704.122-1.046.35-2.74.699-5.477 1.053-8.217.333-2.616.67-5.235 1.008-7.85a.332.332 0 0 1 .122-.217c1.232-.826 2.467-1.64 3.703-2.461.017-.013.045-.013.106-.034-.374 2.924-.744 5.827-1.118 8.73.016.009.029.021.045.034 1.939-2.207 3.878-4.413 5.862-6.666l.154.918c.138.83.273 1.664.423 2.494.028.167-.012.272-.122.388a3376.172 3376.172 0 0 0-3.752 4.046c-.053.059-.106.121-.17.188.04.067.072.13.113.188l6.472 9.318c.04.054.093.1.142.15.004.025.004.042.004.058zM25.733 29.22c-.053-.288-.093-.705-.215-1.097-.602-1.898-2.497-2.94-4.464-2.47-2.155.514-3.695 2.253-3.919 4.51-.167 1.668.711 3.278 2.342 3.879 1.313.488 2.573.284 3.748-.438 1.553-.955 2.398-2.378 2.508-4.384zm-9.464 7.058c-.106.817-.207 1.585-.305 2.356-.13 1.022-.26 2.048-.386 3.07-.016.121-.049.171-.175.171-.984-.004-1.967-.004-2.951-.004-.02 0-.045-.012-.098-.03.061-.483.118-.967.18-1.45.215-1.698.434-3.396.654-5.094.252-1.94.45-3.891.772-5.818.57-3.416 3.395-6.357 6.708-7.091 1.919-.425 3.76-.23 5.435.88 1.67 1.105 2.63 2.711 2.85 4.73.309 2.853-.716 5.222-2.691 7.183-1.297 1.288-2.85 2.106-4.643 2.381-1.846.284-3.581-.029-5.134-1.147-.057-.041-.118-.075-.216-.137zm-1.602-16.23c-1.101.843-2.166 1.656-3.231 2.47-.171-.28-.326-.555-.509-.814-.463-.663-1.04-1.16-1.874-1.222-.695-.05-1.292.183-1.764.713-.423.471-.48 1.139-.085 1.673.435.584.914 1.138 1.398 1.68.81.897 1.65 1.76 2.455 2.666.732.822 1.314 1.743 1.492 2.865.216 1.335-.044 2.607-.662 3.784-1.139 2.173-2.935 3.432-5.301 3.824-1.045.176-2.09.138-3.11-.166-1.354-.41-2.297-1.323-2.903-2.607-.215-.455-.378-.935-.573-1.423 1.187-.65 2.338-1.284 3.508-1.927.041.1.07.184.106.263.2.409.362.843.61 1.222.732 1.118 1.915 1.456 3.114.905a3.41 3.41 0 0 0 .858-.571c.772-.705.918-1.685.345-2.57-.33-.508-.74-.963-1.142-1.422-.956-1.088-1.952-2.144-2.887-3.253-.642-.768-1.08-1.66-1.22-2.686a4.692 4.692 0 0 1 .635-3.116c1.41-2.34 3.46-3.558 6.171-3.458 1.545.058 2.777.8 3.732 2.031.285.363.549.743.837 1.139zm26.189 12.567c-.18 1.41-.35 2.75-.525 4.088-.008.067-.06.159-.117.188-2.667 1.268-6.184 1.093-8.375-1.464-1.179-1.373-1.67-3-1.598-4.81.171-4.192 3.557-7.854 7.61-8.363 2.367-.3 4.444.36 6.05 2.244 1.093 1.285 1.597 2.82 1.524 4.514-.049 1.117-.22 2.231-.358 3.345-.19 1.576-.402 3.153-.605 4.73-.009.054-.017.112-.033.183h-3.191c.04-.362.081-.717.126-1.072.232-1.822.484-3.637.687-5.464.126-1.134.049-2.265-.46-3.316-.536-1.118-1.443-1.71-2.63-1.84-2.46-.266-4.797 1.486-5.321 3.967-.346 1.64.2 3.208 1.472 4.08 1.24.846 2.569.846 3.919.3.687-.275 1.268-.717 1.825-1.31zm13.44-10.043c-.147 1.134-.29 2.252-.435 3.395-.675 0-1.338-.005-2 0a1.263 1.263 0 0 0-1.188.871c-.065.2-.085.418-.114.626-.337 2.607-.67 5.214-1.004 7.825-.085.66-.166 1.314-.252 1.981h-3.32c.06-.5.121-.988.182-1.472.215-1.69.43-3.379.65-5.068.192-1.46.358-2.928.582-4.384.297-1.952 2.19-3.687 4.114-3.77.919-.038 1.837-.005 2.784-.005z" fill="#3D3B3E"/><path d="M72.09 37.273v-1.439h-.009l-.549 1.44h-.175l-.548-1.44H70.8v1.44h-.276V35.55h.427l.5 1.31.492-1.31h.423v1.722h-.277zm-2.44-1.493v1.493h-.276V35.78h-.525v-.23h1.33v.23h-.529zM19.119 17.628h.825l-.195-1.28-.63 1.28zm.951.826H18.7l-.435.875h-.971l2.142-4.104h.935l.728 4.104H20.2l-.13-.875zm4.907-2.403h-.488l-.163.947h.488c.293 0 .529-.2.529-.572 0-.25-.15-.375-.366-.375zm-1.183-.826h1.28c.671 0 1.143.409 1.143 1.118 0 .889-.61 1.485-1.484 1.485h-.553l-.26 1.502h-.833l.707-4.105zm5.26 2.403h.826l-.195-1.28-.63 1.28zm.956.826h-1.37l-.435.875h-.972l2.142-4.104h.936l.727 4.104h-.898l-.13-.875zm5.415.73a2.13 2.13 0 0 1-.907.212c-1.057 0-1.724-.813-1.724-1.835 0-1.306 1.07-2.403 2.342-2.403.317 0 .606.08.841.213l-.117.984c-.175-.2-.46-.337-.813-.337-.728 0-1.379.675-1.379 1.46 0 .596.366 1.063.944 1.063.353 0 .695-.137.922-.334l-.11.976zm5.106-1.51h-1.74l-.285 1.651h-.833l.707-4.104h.833l-.28 1.623h1.74l.28-1.623h.838l-.708 4.104h-.833l.28-1.651zm3.065 1.655l.703-4.104h2.22l-.143.826h-1.382l-.142.797h1.268l-.142.826h-1.272l-.143.826h1.383l-.143.825-2.207.005z" fill="#3D3B3E"/></svg>